Coordinates
version=1
nRows=37
nColumns=38
inDegrees=no

Units are S.I. units (second, meters, Newtons, ...)
If the header above contains a line with 'inDegrees', this indicates whether rotational values are in degrees (yes) or radians (no).

endheader
time	pelvis_tilt	pelvis_list	pelvis_rotation	pelvis_tx	pelvis_ty	pelvis_tz	hip_flexion_r	hip_adduction_r	hip_rotation_r	knee_angle_r	ankle_angle_r	subtalar_angle_r	mtp_angle_r	hip_flexion_l	hip_adduction_l	hip_rotation_l	knee_angle_l	ankle_angle_l	subtalar_angle_l	mtp_angle_l	lumbar_extension	lumbar_bending	lumbar_rotation	arm_flex_r	arm_add_r	arm_rot_r	elbow_flex_r	pro_sup_r	wrist_flex_r	wrist_dev_r	arm_flex_l	arm_add_l	arm_rot_l	elbow_flex_l	pro_sup_l	wrist_flex_l	wrist_dev_l
66.12	0.863234	1.47466	0.83637	0.670537	0.655716	0.92607	0.189038	-0.0705507	-0.203039	0.496283	-0.200469	0	0	0.129181	-0.206964	-0.342771	0.32266	-0.372018	0	0	-0.172942	0.17852	-0.155702	0.237957	-0.490019	0.552219	0.614973	1.04915	0	0	0.00075885	-0.330989	0.137023	0.845668	1.52766	0	0
66.13	0.934492	1.47995	0.765431	0.670786	0.658145	0.927601	0.16605	-0.0668846	-0.20963	0.474245	-0.210096	0	0	0.106719	-0.205373	-0.342843	0.301175	-0.382036	0	0	-0.170902	0.176237	-0.160498	0.240769	-0.490123	0.574832	0.613122	1.03005	0	0	-0.00641133	-0.329819	0.129236	0.845699	1.53494	0	0
66.14	0.99263	1.48275	0.70826	0.67098	0.660643	0.928802	0.14639	-0.063192	-0.21812	0.453735	-0.216288	0	0	0.0876116	-0.204074	-0.341612	0.280627	-0.388702	0	0	-0.16517	0.174705	-0.16384	0.237431	-0.488952	0.580242	0.612813	1.02767	0	0	-0.0107464	-0.329172	0.129242	0.842312	1.5343	0	0
66.15	1.05285	1.48567	0.647983	0.671259	0.663021	0.929925	0.126903	-0.0598237	-0.225596	0.433377	-0.222169	0	0	0.067464	-0.20209	-0.341114	0.258767	-0.395809	0	0	-0.160278	0.172598	-0.166088	0.234178	-0.487732	0.584294	0.612667	1.02441	0	0	-0.014834	-0.328614	0.129379	0.838965	1.5344	0	0
66.16	1.11958	1.48892	0.580502	0.6716	0.665313	0.930991	0.106789	-0.0568328	-0.232355	0.412679	-0.227684	0	0	0.0458914	-0.199352	-0.341284	0.235514	-0.403299	0	0	-0.156435	0.169964	-0.167597	0.231115	-0.486247	0.587041	0.612244	1.02024	0	0	-0.0187658	-0.328243	0.129834	0.835718	1.53481	0	0
66.17	1.20105	1.49216	0.498366	0.671921	0.667587	0.93202	0.0857414	-0.053946	-0.240023	0.392626	-0.232904	0	0	0.0229017	-0.196528	-0.341451	0.21141	-0.411105	0	0	-0.153712	0.167436	-0.168932	0.22842	-0.484896	0.590977	0.611286	1.01707	0	0	-0.0223606	-0.327813	0.130736	0.83248	1.53506	0	0
66.18	1.29344	1.4948	0.405784	0.67217	0.669854	0.932963	0.063669	-0.0507331	-0.248686	0.37176	-0.237991	0	0	-0.000539357	-0.193804	-0.340969	0.186865	-0.419169	0	0	-0.151409	0.165206	-0.170569	0.225657	-0.483707	0.594735	0.610313	1.01369	0	0	-0.0257874	-0.32718	0.131862	0.829148	1.53521	0	0
66.19	1.38251	1.4966	0.316327	0.672416	0.672068	0.933738	0.042668	-0.0473994	-0.255969	0.350718	-0.243308	0	0	-0.0232425	-0.191193	-0.340015	0.162409	-0.427214	0	0	-0.148617	0.162995	-0.171856	0.222263	-0.482397	0.597165	0.609584	1.00906	0	0	-0.0290237	-0.326244	0.133223	0.825486	1.53549	0	0
66.2	1.43939	1.49764	0.258199	0.67274	0.67413	0.93418	0.0261693	-0.0448893	-0.260223	0.332071	-0.24829	0	0	-0.0425756	-0.188282	-0.338053	0.13903	-0.435031	0	0	-0.143505	0.16024	-0.172367	0.218972	-0.481214	0.600225	0.608447	1.00581	0	0	-0.0321631	-0.325026	0.134727	0.821291	1.53599	0	0
66.21	1.49806	1.49853	0.198607	0.67302	0.676147	0.934519	0.00939026	-0.0424143	-0.264106	0.313097	-0.253001	0	0	-0.0611474	-0.18561	-0.335298	0.116877	-0.442707	0	0	-0.138702	0.157506	-0.173115	0.216107	-0.48001	0.603111	0.606814	1.00191	0	0	-0.0350634	-0.323643	0.136364	0.8169	1.5364	0	0
66.22	1.56082	1.49928	0.135137	0.673244	0.678097	0.934774	-0.00795988	-0.0398474	-0.267074	0.29312	-0.258336	0	0	-0.0790878	-0.183186	-0.331571	0.0960209	-0.450248	0	0	-0.134485	0.154828	-0.174029	0.213129	-0.478512	0.604578	0.605215	0.996179	0	0	-0.0376791	-0.321997	0.13802	0.812264	1.53656	0	0
66.23	1.55502	1.49979	0.139378	0.673477	0.679972	0.934484	-0.0169313	-0.0389025	-0.26825	0.280301	-0.252544	0	0	-0.0887121	-0.181234	-0.330397	0.0822878	-0.447378	0	0	-0.125294	0.151803	-0.173212	0.204621	-0.474484	0.587279	0.604241	1.01667	0	0	-0.0396044	-0.319217	0.140162	0.805535	1.53911	0	0
66.24	1.67169	1.50023	0.023387	0.673452	0.681698	0.934848	-0.0399397	-0.0355665	-0.269813	0.254881	-0.266877	0	0	-0.10844	-0.179472	-0.324673	0.0641053	-0.45887	0	0	-0.126171	0.149587	-0.176404	0.20822	-0.476134	0.609241	0.602079	0.990463	0	0	-0.0424447	-0.31796	0.141243	0.801933	1.5384	0	0
66.25	1.73989	1.50044	-0.0444292	0.673412	0.683297	0.934838	-0.0558568	-0.0338539	-0.271593	0.238019	-0.270201	0	0	-0.121233	-0.178266	-0.32136	0.05319	-0.46076	0	0	-0.123956	0.147219	-0.178088	0.206479	-0.47514	0.611351	0.600607	0.986817	0	0	-0.0438675	-0.315526	0.142869	0.796245	1.53959	0	0
66.26	1.81173	1.5003	-0.115667	0.673302	0.684724	0.934818	-0.0711583	-0.0322507	-0.272659	0.222606	-0.273166	0	0	-0.132477	-0.177483	-0.318519	0.0455371	-0.461153	0	0	-0.122881	0.145105	-0.17992	0.204827	-0.473778	0.612142	0.59925	0.981373	0	0	-0.0446491	-0.31258	0.14412	0.790051	1.54051	0	0
66.27	1.88361	1.49966	-0.186677	0.673139	0.686025	0.934782	-0.0856737	-0.0307424	-0.273	0.208228	-0.276216	0	0	-0.142225	-0.177224	-0.316051	0.0406686	-0.460293	0	0	-0.122559	0.143292	-0.181956	0.203613	-0.472309	0.613226	0.597563	0.976306	0	0	-0.0449911	-0.309357	0.145106	0.783032	1.54161	0	0
66.28	1.95523	1.49849	-0.257136	0.672926	0.687203	0.934765	-0.0993565	-0.029211	-0.273095	0.195422	-0.278979	0	0	-0.150666	-0.177406	-0.314075	0.0383494	-0.458416	0	0	-0.123058	0.141791	-0.18411	0.20292	-0.470859	0.615023	0.595473	0.972056	0	0	-0.0446044	-0.30571	0.145986	0.774924	1.54262	0	0
66.29	2.02589	1.49684	-0.326572	0.672679	0.688248	0.934793	-0.111848	-0.0278335	-0.27285	0.184895	-0.281181	0	0	-0.158069	-0.177922	-0.312782	0.0381839	-0.455827	0	0	-0.124364	0.140516	-0.186291	0.202859	-0.469358	0.617215	0.592977	0.96853	0	0	-0.0435129	-0.301544	0.146564	0.765598	1.54315	0	0
66.3	2.09216	1.49482	-0.391502	0.672399	0.689162	0.934861	-0.122753	-0.0266829	-0.272373	0.17695	-0.282764	0	0	-0.16437	-0.178686	-0.312129	0.0397276	-0.452851	0	0	-0.126113	0.139431	-0.188627	0.203434	-0.467817	0.620093	0.590056	0.965615	0	0	-0.041777	-0.296942	0.146866	0.754903	1.54366	0	0
66.31	2.15203	1.49257	-0.449949	0.672109	0.689958	0.934953	-0.132322	-0.025632	-0.271083	0.17062	-0.283652	0	0	-0.16963	-0.179591	-0.31182	0.0424656	-0.449695	0	0	-0.128109	0.138471	-0.191	0.203905	-0.466192	0.622771	0.587375	0.961652	0	0	-0.0395168	-0.292075	0.147003	0.743266	1.54436	0	0
66.32	2.18681	1.49136	-0.483651	0.671867	0.69067	0.934919	-0.136879	-0.0255812	-0.270237	0.170386	-0.27941	0	0	-0.172125	-0.18018	-0.311508	0.045738	-0.449626	0	0	-0.12851	0.137397	-0.191835	0.198229	-0.461273	0.60233	0.585942	0.985044	0	0	-0.0360367	-0.287274	0.149635	0.730357	1.54245	0	0
66.33	2.24395	1.48846	-0.539329	0.671609	0.691283	0.935139	-0.144778	-0.0245698	-0.268926	0.167594	-0.280745	0	0	-0.177285	-0.181347	-0.311536	0.0488287	-0.447054	0	0	-0.131812	0.136582	-0.194129	0.198492	-0.459171	0.603944	0.583645	0.980645	0	0	-0.0333423	-0.282681	0.150059	0.71814	1.54313	0	0
66.34	2.278	1.48686	-0.573408	0.671434	0.691702	0.935218	-0.147978	-0.024951	-0.265704	0.168901	-0.280877	0	0	-0.180239	-0.181623	-0.311938	0.0516201	-0.444917	0	0	-0.133643	0.135367	-0.195246	0.198962	-0.457394	0.605652	0.581806	0.977052	0	0	-0.0309336	-0.278035	0.15011	0.706222	1.54398	0	0
66.35	2.30613	1.48552	-0.602072	0.671297	0.692057	0.935298	-0.149744	-0.0256016	-0.262806	0.172135	-0.279758	0	0	-0.182916	-0.181524	-0.313093	0.0538637	-0.442958	0	0	-0.135086	0.134187	-0.195838	0.199464	-0.455909	0.607468	0.580142	0.973859	0	0	-0.0282925	-0.27326	0.15021	0.693872	1.54505	0	0
66.36	2.33138	1.48428	-0.628137	0.671205	0.692376	0.935399	-0.150875	-0.0262539	-0.260725	0.176414	-0.277528	0	0	-0.18578	-0.181093	-0.314652	0.0551338	-0.441396	0	0	-0.136493	0.132987	-0.196171	0.199791	-0.454473	0.608821	0.578824	0.970458	0	0	-0.0257969	-0.268739	0.150402	0.681953	1.54614	0	0
66.37	2.35297	1.48314	-0.65067	0.671135	0.692693	0.935494	-0.151423	-0.0270584	-0.259458	0.181194	-0.274772	0	0	-0.188848	-0.180406	-0.316342	0.0553121	-0.440365	0	0	-0.13771	0.131869	-0.196318	0.199417	-0.452924	0.609091	0.578119	0.965905	0	0	-0.023668	-0.264515	0.150691	0.670893	1.54704	0	0
66.38	2.37197	1.48199	-0.670665	0.671065	0.692998	0.935581	-0.151518	-0.027958	-0.259254	0.186511	-0.271623	0	0	-0.192205	-0.179618	-0.317899	0.054471	-0.439844	0	0	-0.138727	0.130919	-0.196178	0.198668	-0.451709	0.609153	0.578005	0.96033	0	0	-0.0216446	-0.260604	0.15158	0.66036	1.54794	0	0
66.39	2.38667	1.48113	-0.686423	0.670993	0.693299	0.935628	-0.151446	-0.0288767	-0.25929	0.190991	-0.266636	0	0	-0.195669	-0.17854	-0.318745	0.0520125	-0.441402	0	0	-0.138716	0.12979	-0.195838	0.200742	-0.453608	0.626087	0.578355	0.927271	0	0	-0.0194902	-0.257722	0.155724	0.650093	1.54639	0	0
66.4	2.40034	1.48021	-0.700944	0.670903	0.693585	0.935672	-0.152462	-0.0294117	-0.259129	0.192313	-0.266208	0	0	-0.198934	-0.177623	-0.319903	0.0496849	-0.44231	0	0	-0.139404	0.12906	-0.195938	0.199701	-0.452423	0.625321	0.578972	0.924173	0	0	-0.0184926	-0.25494	0.157743	0.642433	1.54556	0	0
66.41	2.4147	1.47915	-0.716086	0.67082	0.693862	0.935727	-0.153317	-0.0300965	-0.260289	0.194709	-0.265455	0	0	-0.202471	-0.176778	-0.321164	0.0470848	-0.443446	0	0	-0.140231	0.128495	-0.196069	0.198914	-0.451513	0.625651	0.57969	0.922763	0	0	-0.017799	-0.252543	0.159815	0.636039	1.54515	0	0
66.42	2.42845	1.47797	-0.730393	0.670744	0.694157	0.935771	-0.154096	-0.0307861	-0.262457	0.197737	-0.264868	0	0	-0.206173	-0.176157	-0.322363	0.0442371	-0.444689	0	0	-0.140971	0.1281	-0.196325	0.197925	-0.450676	0.626558	0.580686	0.922097	0	0	-0.0174702	-0.250646	0.162156	0.630817	1.54587	0	0
66.43	2.44045	1.47679	-0.742731	0.670648	0.694461	0.935798	-0.155415	-0.0311362	-0.264403	0.199199	-0.264981	0	0	-0.209714	-0.17573	-0.323273	0.0414026	-0.44591	0	0	-0.141466	0.127879	-0.196633	0.197231	-0.450099	0.628253	0.581421	0.922489	0	0	-0.0174413	-0.249196	0.164706	0.626702	1.54742	0	0
66.44	2.45409	1.47537	-0.756578	0.670529	0.694743	0.93584	-0.157524	-0.0311996	-0.266085	0.199366	-0.265461	0	0	-0.213471	-0.175384	-0.323754	0.0386006	-0.447097	0	0	-0.142201	0.127843	-0.196891	0.196481	-0.449499	0.629574	0.5821	0.922753	0	0	-0.0174585	-0.248119	0.167424	0.623491	1.54936	0	0
66.45	2.46749	1.47387	-0.770047	0.670399	0.695004	0.935892	-0.159999	-0.0310625	-0.267243	0.198919	-0.265869	0	0	-0.2171	-0.175134	-0.324145	0.0361023	-0.447932	0	0	-0.143042	0.127959	-0.197147	0.19559	-0.448783	0.630706	0.582553	0.923436	0	0	-0.0177302	-0.247253	0.169698	0.621413	1.55099	0	0
66.46	2.48041	1.47236	-0.782877	0.670249	0.695249	0.935958	-0.162695	-0.0307662	-0.268381	0.198325	-0.266052	0	0	-0.220573	-0.174955	-0.324377	0.033976	-0.44847	0	0	-0.143834	0.12824	-0.19739	0.195012	-0.448314	0.632238	0.582556	0.925228	0	0	-0.0180724	-0.246424	0.171533	0.619907	1.55222	0	0
66.47	2.49047	1.47113	-0.792701	0.670089	0.695511	0.936011	-0.165119	-0.0304318	-0.269753	0.197794	-0.266052	0	0	-0.223517	-0.174793	-0.32442	0.0322206	-0.44874	0	0	-0.144045	0.128572	-0.197509	0.194366	-0.448094	0.633929	0.582113	0.927427	0	0	-0.0184623	-0.245607	0.173055	0.618702	1.55302	0	0
66.48	2.49308	1.47095	-0.795491	0.669945	0.695711	0.935985	-0.165796	-0.0306978	-0.270011	0.197635	-0.266196	0	0	-0.224937	-0.174295	-0.324205	0.0309053	-0.448781	0	0	-0.143122	0.128745	-0.197192	0.193286	-0.447764	0.63464	0.581455	0.92858	0	0	-0.0190027	-0.244765	0.174107	0.61794	1.55316	0	0
